<svg id="Layer_1" data-name="Layer 1" xmlns="http://www.w3.org/2000/svg" viewBox="0 0 6000 4032">
  <defs>
    <style>
      .cls-1 {
        fill: #f8c6ac;
      }

      .cls-2 {
        fill: #fbf1d0;
      }

      .cls-3 {
        fill: #b1ddc6;
      }

      .cls-4 {
        fill: #494c57;
      }
    </style>
  </defs>
  <title>title</title>
  <rect class="cls-1" y="-8.88" width="5999.03" height="3298.34"/>
  <rect class="cls-2" y="3285.09" width="6001" height="742.99"/>
  <path class="cls-3" d="M2848,3400.14c44,6.18,988,129.83,1104,145.28s172,24.73,68,46.37c-90.57,18.84-2189.36,350.85-2729.93,436.29H3411c1005.68-342.29,1377.4-421.68,1061-495-320-74.19-1404-154.56-1504-160.74s-68-18.55-4-43.28,100-34,100-34h-63.41S2872,3332.14,2840,3350.68,2804,3394,2848,3400.14Z"/>
  <path class="cls-4" d="M3101.38,3270.44c-143.47-10.39-138-18.54-228-23.18s-186-18.54-275.94-46.36-237.69-19.25-299.94-13.91c-108,9.27-257.95-9.27-329.93-9.27s-198,13.91-281.94,13.91-269.95-32.45-389.92-27.81-234,23.18-347.93,4.64S653.87,3136,407.92,3136,0,3140.64,0,3140.64v166.89s697-9.39,3041-9.39,2953,49.46,2953,49.46V3155.94s-113-18.55-161-18.55-232,30.91-464,24.73-584,6.18-688-6.18-152,30.91-288,24.73-712-12.36-792-6.18-128,43.28-224,37.09S3145.72,3273.65,3101.38,3270.44Z"/>
</svg>
